<mxfile host="app.diagrams.net" agent="Mozilla/5.0 (Windows NT 10.0; Win64; x64) AppleWebKit/537.36 (KHTML, like Gecko) Chrome/128.0.0.0 Safari/537.36" version="24.7.15">
  <diagram name="ページ1" id="rAdwiwLORhIC0Ff-JGV9">
    <mxGraphModel grid="1" page="1" gridSize="10" guides="1" tooltips="1" connect="1" arrows="1" fold="1" pageScale="1" pageWidth="827" pageHeight="1169" math="0" shadow="0">
      <root>
        <mxCell id="0" />
        <mxCell id="1" parent="0" />
        <mxCell id="QBzZupOqylm0bVcXdSXY-59" value="" style="whiteSpace=wrap;html=1;" vertex="1" parent="1">
          <mxGeometry x="-100" y="-20" width="1120" height="1000" as="geometry" />
        </mxCell>
        <mxCell id="QBzZupOqylm0bVcXdSXY-55" value="&amp;nbsp; 追加実装（課金要素）" style="whiteSpace=wrap;html=1;align=left;verticalAlign=top;" vertex="1" parent="1">
          <mxGeometry x="160" y="700" width="560" height="210" as="geometry" />
        </mxCell>
        <mxCell id="QBzZupOqylm0bVcXdSXY-19" style="edgeStyle=orthogonalEdgeStyle;rounded=0;orthogonalLoop=1;jettySize=auto;html=1;entryX=0;entryY=0.5;entryDx=0;entryDy=0;" edge="1" parent="1" source="QBzZupOqylm0bVcXdSXY-1" target="QBzZupOqylm0bVcXdSXY-8">
          <mxGeometry relative="1" as="geometry" />
        </mxCell>
        <mxCell id="QBzZupOqylm0bVcXdSXY-1" value="ログイン" style="rounded=1;whiteSpace=wrap;html=1;" vertex="1" parent="1">
          <mxGeometry x="210" y="220" width="120" height="60" as="geometry" />
        </mxCell>
        <mxCell id="QBzZupOqylm0bVcXdSXY-32" style="edgeStyle=orthogonalEdgeStyle;rounded=0;orthogonalLoop=1;jettySize=auto;html=1;entryX=0.25;entryY=0;entryDx=0;entryDy=0;" edge="1" parent="1" source="QBzZupOqylm0bVcXdSXY-2" target="QBzZupOqylm0bVcXdSXY-8">
          <mxGeometry relative="1" as="geometry" />
        </mxCell>
        <mxCell id="QBzZupOqylm0bVcXdSXY-2" value="新規登録" style="rounded=1;whiteSpace=wrap;html=1;" vertex="1" parent="1">
          <mxGeometry x="210" y="130" width="120" height="60" as="geometry" />
        </mxCell>
        <mxCell id="QBzZupOqylm0bVcXdSXY-17" style="edgeStyle=orthogonalEdgeStyle;rounded=0;orthogonalLoop=1;jettySize=auto;html=1;entryX=0;entryY=0.5;entryDx=0;entryDy=0;" edge="1" parent="1" source="QBzZupOqylm0bVcXdSXY-3" target="QBzZupOqylm0bVcXdSXY-2">
          <mxGeometry relative="1" as="geometry" />
        </mxCell>
        <mxCell id="QBzZupOqylm0bVcXdSXY-18" style="edgeStyle=orthogonalEdgeStyle;rounded=0;orthogonalLoop=1;jettySize=auto;html=1;" edge="1" parent="1" source="QBzZupOqylm0bVcXdSXY-3" target="QBzZupOqylm0bVcXdSXY-1">
          <mxGeometry relative="1" as="geometry" />
        </mxCell>
        <mxCell id="QBzZupOqylm0bVcXdSXY-47" style="edgeStyle=orthogonalEdgeStyle;rounded=0;orthogonalLoop=1;jettySize=auto;html=1;entryX=0;entryY=0.25;entryDx=0;entryDy=0;" edge="1" parent="1" source="QBzZupOqylm0bVcXdSXY-3" target="QBzZupOqylm0bVcXdSXY-43">
          <mxGeometry relative="1" as="geometry" />
        </mxCell>
        <mxCell id="QBzZupOqylm0bVcXdSXY-3" value="施工管理" style="shape=umlActor;verticalLabelPosition=bottom;verticalAlign=top;html=1;outlineConnect=0;" vertex="1" parent="1">
          <mxGeometry x="80" y="220" width="30" height="60" as="geometry" />
        </mxCell>
        <mxCell id="QBzZupOqylm0bVcXdSXY-15" style="edgeStyle=orthogonalEdgeStyle;rounded=0;orthogonalLoop=1;jettySize=auto;html=1;entryX=0;entryY=0.5;entryDx=0;entryDy=0;" edge="1" parent="1" source="QBzZupOqylm0bVcXdSXY-4" target="QBzZupOqylm0bVcXdSXY-42">
          <mxGeometry relative="1" as="geometry" />
        </mxCell>
        <mxCell id="QBzZupOqylm0bVcXdSXY-44" style="edgeStyle=orthogonalEdgeStyle;rounded=0;orthogonalLoop=1;jettySize=auto;html=1;entryX=0;entryY=0.75;entryDx=0;entryDy=0;" edge="1" parent="1" source="QBzZupOqylm0bVcXdSXY-4" target="QBzZupOqylm0bVcXdSXY-43">
          <mxGeometry relative="1" as="geometry" />
        </mxCell>
        <mxCell id="QBzZupOqylm0bVcXdSXY-4" value="職人" style="shape=umlActor;verticalLabelPosition=bottom;verticalAlign=top;html=1;outlineConnect=0;" vertex="1" parent="1">
          <mxGeometry x="80" y="440" width="30" height="60" as="geometry" />
        </mxCell>
        <mxCell id="QBzZupOqylm0bVcXdSXY-11" style="edgeStyle=orthogonalEdgeStyle;rounded=0;orthogonalLoop=1;jettySize=auto;html=1;" edge="1" parent="1" source="QBzZupOqylm0bVcXdSXY-8" target="QBzZupOqylm0bVcXdSXY-9">
          <mxGeometry relative="1" as="geometry">
            <mxPoint x="370" y="320" as="sourcePoint" />
            <Array as="points" />
          </mxGeometry>
        </mxCell>
        <mxCell id="QBzZupOqylm0bVcXdSXY-21" style="edgeStyle=orthogonalEdgeStyle;rounded=0;orthogonalLoop=1;jettySize=auto;html=1;entryX=0;entryY=0.5;entryDx=0;entryDy=0;" edge="1" parent="1" source="QBzZupOqylm0bVcXdSXY-8" target="QBzZupOqylm0bVcXdSXY-12">
          <mxGeometry relative="1" as="geometry" />
        </mxCell>
        <mxCell id="QBzZupOqylm0bVcXdSXY-27" style="edgeStyle=orthogonalEdgeStyle;rounded=0;orthogonalLoop=1;jettySize=auto;html=1;entryX=0;entryY=0.5;entryDx=0;entryDy=0;" edge="1" parent="1" source="QBzZupOqylm0bVcXdSXY-8" target="QBzZupOqylm0bVcXdSXY-38">
          <mxGeometry relative="1" as="geometry" />
        </mxCell>
        <mxCell id="QBzZupOqylm0bVcXdSXY-8" value="現場一覧&lt;div&gt;工事一覧&lt;br&gt;&lt;/div&gt;" style="rounded=1;whiteSpace=wrap;html=1;" vertex="1" parent="1">
          <mxGeometry x="380" y="220" width="120" height="60" as="geometry" />
        </mxCell>
        <mxCell id="QBzZupOqylm0bVcXdSXY-41" style="edgeStyle=orthogonalEdgeStyle;rounded=0;orthogonalLoop=1;jettySize=auto;html=1;exitX=0.5;exitY=1;exitDx=0;exitDy=0;" edge="1" parent="1" source="QBzZupOqylm0bVcXdSXY-9" target="QBzZupOqylm0bVcXdSXY-40">
          <mxGeometry relative="1" as="geometry">
            <Array as="points">
              <mxPoint x="440" y="570" />
              <mxPoint x="610" y="570" />
            </Array>
          </mxGeometry>
        </mxCell>
        <mxCell id="QBzZupOqylm0bVcXdSXY-9" value="KY作成&lt;div&gt;周知サイン&lt;/div&gt;" style="rounded=1;whiteSpace=wrap;html=1;" vertex="1" parent="1">
          <mxGeometry x="380" y="440" width="120" height="60" as="geometry" />
        </mxCell>
        <mxCell id="QBzZupOqylm0bVcXdSXY-30" style="edgeStyle=orthogonalEdgeStyle;rounded=0;orthogonalLoop=1;jettySize=auto;html=1;entryX=0.75;entryY=0;entryDx=0;entryDy=0;" edge="1" parent="1" source="QBzZupOqylm0bVcXdSXY-12" target="QBzZupOqylm0bVcXdSXY-8">
          <mxGeometry relative="1" as="geometry">
            <Array as="points">
              <mxPoint x="610" y="180" />
              <mxPoint x="470" y="180" />
            </Array>
          </mxGeometry>
        </mxCell>
        <mxCell id="QBzZupOqylm0bVcXdSXY-12" value="リスク項目&lt;div&gt;安全対策項目他&lt;br&gt;&lt;div&gt;入力&lt;/div&gt;&lt;/div&gt;" style="rounded=1;whiteSpace=wrap;html=1;" vertex="1" parent="1">
          <mxGeometry x="550" y="220" width="120" height="60" as="geometry" />
        </mxCell>
        <mxCell id="QBzZupOqylm0bVcXdSXY-35" style="edgeStyle=orthogonalEdgeStyle;rounded=0;orthogonalLoop=1;jettySize=auto;html=1;entryX=0.75;entryY=0;entryDx=0;entryDy=0;" edge="1" parent="1" source="QBzZupOqylm0bVcXdSXY-13" target="QBzZupOqylm0bVcXdSXY-25">
          <mxGeometry relative="1" as="geometry">
            <Array as="points">
              <mxPoint x="790" y="410" />
              <mxPoint x="640" y="410" />
            </Array>
          </mxGeometry>
        </mxCell>
        <mxCell id="QBzZupOqylm0bVcXdSXY-13" value="&lt;div&gt;リスク項目&lt;/div&gt;&lt;div&gt;安全対策項目&lt;br&gt;&lt;/div&gt;&lt;div&gt;編集・削除&lt;/div&gt;" style="rounded=1;whiteSpace=wrap;html=1;" vertex="1" parent="1">
          <mxGeometry x="730" y="440" width="120" height="60" as="geometry" />
        </mxCell>
        <mxCell id="E2zwuJx516XYgaI6lLfB-5" style="edgeStyle=orthogonalEdgeStyle;rounded=0;orthogonalLoop=1;jettySize=auto;html=1;entryX=1;entryY=0.5;entryDx=0;entryDy=0;" edge="1" parent="1" source="QBzZupOqylm0bVcXdSXY-14" target="E2zwuJx516XYgaI6lLfB-4">
          <mxGeometry relative="1" as="geometry" />
        </mxCell>
        <mxCell id="QBzZupOqylm0bVcXdSXY-14" value="export" style="rounded=1;whiteSpace=wrap;html=1;" vertex="1" parent="1">
          <mxGeometry x="380" y="610" width="120" height="60" as="geometry" />
        </mxCell>
        <mxCell id="QBzZupOqylm0bVcXdSXY-28" style="edgeStyle=orthogonalEdgeStyle;rounded=0;orthogonalLoop=1;jettySize=auto;html=1;" edge="1" parent="1" source="QBzZupOqylm0bVcXdSXY-25" target="QBzZupOqylm0bVcXdSXY-13">
          <mxGeometry relative="1" as="geometry" />
        </mxCell>
        <mxCell id="QBzZupOqylm0bVcXdSXY-34" style="edgeStyle=orthogonalEdgeStyle;rounded=0;orthogonalLoop=1;jettySize=auto;html=1;" edge="1" parent="1" source="QBzZupOqylm0bVcXdSXY-25" target="QBzZupOqylm0bVcXdSXY-9">
          <mxGeometry relative="1" as="geometry">
            <Array as="points" />
          </mxGeometry>
        </mxCell>
        <mxCell id="QBzZupOqylm0bVcXdSXY-49" style="edgeStyle=orthogonalEdgeStyle;rounded=0;orthogonalLoop=1;jettySize=auto;html=1;entryX=1;entryY=0.25;entryDx=0;entryDy=0;" edge="1" parent="1" target="QBzZupOqylm0bVcXdSXY-43">
          <mxGeometry relative="1" as="geometry">
            <mxPoint x="430" y="410" as="sourcePoint" />
            <Array as="points">
              <mxPoint x="430" y="410" />
              <mxPoint x="410" y="410" />
              <mxPoint x="410" y="345" />
            </Array>
          </mxGeometry>
        </mxCell>
        <mxCell id="QBzZupOqylm0bVcXdSXY-50" style="edgeStyle=orthogonalEdgeStyle;rounded=0;orthogonalLoop=1;jettySize=auto;html=1;exitX=0.25;exitY=0;exitDx=0;exitDy=0;endArrow=none;endFill=0;" edge="1" parent="1" source="QBzZupOqylm0bVcXdSXY-25">
          <mxGeometry relative="1" as="geometry">
            <mxPoint x="450" y="410" as="targetPoint" />
            <Array as="points">
              <mxPoint x="580" y="410" />
              <mxPoint x="450" y="410" />
            </Array>
          </mxGeometry>
        </mxCell>
        <mxCell id="QBzZupOqylm0bVcXdSXY-52" style="edgeStyle=orthogonalEdgeStyle;rounded=0;orthogonalLoop=1;jettySize=auto;html=1;entryX=1;entryY=0.5;entryDx=0;entryDy=0;" edge="1" parent="1" source="QBzZupOqylm0bVcXdSXY-25" target="QBzZupOqylm0bVcXdSXY-38">
          <mxGeometry relative="1" as="geometry">
            <Array as="points">
              <mxPoint x="610" y="530" />
              <mxPoint x="880" y="530" />
              <mxPoint x="880" y="360" />
            </Array>
          </mxGeometry>
        </mxCell>
        <mxCell id="QBzZupOqylm0bVcXdSXY-25" value="KYフォーマット&lt;div&gt;詳細閲覧&lt;/div&gt;" style="rounded=1;whiteSpace=wrap;html=1;" vertex="1" parent="1">
          <mxGeometry x="550" y="440" width="120" height="60" as="geometry" />
        </mxCell>
        <mxCell id="QBzZupOqylm0bVcXdSXY-39" style="edgeStyle=orthogonalEdgeStyle;rounded=0;orthogonalLoop=1;jettySize=auto;html=1;entryX=0.5;entryY=0;entryDx=0;entryDy=0;" edge="1" parent="1" source="QBzZupOqylm0bVcXdSXY-38" target="QBzZupOqylm0bVcXdSXY-25">
          <mxGeometry relative="1" as="geometry" />
        </mxCell>
        <mxCell id="QBzZupOqylm0bVcXdSXY-38" value="KYフォーマット&lt;div&gt;一覧&lt;/div&gt;" style="rounded=1;whiteSpace=wrap;html=1;" vertex="1" parent="1">
          <mxGeometry x="550" y="330" width="120" height="60" as="geometry" />
        </mxCell>
        <mxCell id="QBzZupOqylm0bVcXdSXY-53" style="edgeStyle=orthogonalEdgeStyle;rounded=0;orthogonalLoop=1;jettySize=auto;html=1;entryX=0.5;entryY=0;entryDx=0;entryDy=0;" edge="1" parent="1" source="QBzZupOqylm0bVcXdSXY-40" target="QBzZupOqylm0bVcXdSXY-8">
          <mxGeometry relative="1" as="geometry">
            <Array as="points">
              <mxPoint x="910" y="640" />
              <mxPoint x="910" y="160" />
              <mxPoint x="440" y="160" />
            </Array>
          </mxGeometry>
        </mxCell>
        <mxCell id="QBzZupOqylm0bVcXdSXY-57" style="edgeStyle=orthogonalEdgeStyle;rounded=0;orthogonalLoop=1;jettySize=auto;html=1;" edge="1" parent="1" source="QBzZupOqylm0bVcXdSXY-40" target="QBzZupOqylm0bVcXdSXY-54">
          <mxGeometry relative="1" as="geometry">
            <Array as="points" />
          </mxGeometry>
        </mxCell>
        <mxCell id="E2zwuJx516XYgaI6lLfB-6" style="edgeStyle=orthogonalEdgeStyle;rounded=0;orthogonalLoop=1;jettySize=auto;html=1;" edge="1" parent="1" source="QBzZupOqylm0bVcXdSXY-40" target="QBzZupOqylm0bVcXdSXY-14">
          <mxGeometry relative="1" as="geometry" />
        </mxCell>
        <mxCell id="QBzZupOqylm0bVcXdSXY-40" value="作成済み&lt;div&gt;KY一覧&lt;/div&gt;" style="rounded=1;whiteSpace=wrap;html=1;" vertex="1" parent="1">
          <mxGeometry x="550" y="610" width="120" height="60" as="geometry" />
        </mxCell>
        <mxCell id="QBzZupOqylm0bVcXdSXY-46" style="edgeStyle=orthogonalEdgeStyle;rounded=0;orthogonalLoop=1;jettySize=auto;html=1;entryX=0;entryY=0.5;entryDx=0;entryDy=0;" edge="1" parent="1" source="QBzZupOqylm0bVcXdSXY-42" target="QBzZupOqylm0bVcXdSXY-9">
          <mxGeometry relative="1" as="geometry" />
        </mxCell>
        <mxCell id="QBzZupOqylm0bVcXdSXY-42" value="現場一覧&lt;div&gt;工事一覧&lt;br&gt;&lt;/div&gt;" style="rounded=1;whiteSpace=wrap;html=1;" vertex="1" parent="1">
          <mxGeometry x="210" y="440" width="120" height="60" as="geometry" />
        </mxCell>
        <mxCell id="QBzZupOqylm0bVcXdSXY-45" style="edgeStyle=orthogonalEdgeStyle;rounded=0;orthogonalLoop=1;jettySize=auto;html=1;entryX=0;entryY=0.25;entryDx=0;entryDy=0;" edge="1" parent="1" source="QBzZupOqylm0bVcXdSXY-43" target="QBzZupOqylm0bVcXdSXY-9">
          <mxGeometry relative="1" as="geometry" />
        </mxCell>
        <mxCell id="QBzZupOqylm0bVcXdSXY-43" value="&lt;div&gt;各KY用&lt;/div&gt;&lt;div&gt;QRコード&lt;/div&gt;" style="rounded=1;whiteSpace=wrap;html=1;" vertex="1" parent="1">
          <mxGeometry x="210" y="330" width="120" height="60" as="geometry" />
        </mxCell>
        <mxCell id="QBzZupOqylm0bVcXdSXY-54" value="一括ダウンロード&lt;br&gt;Excel他出力" style="rounded=1;whiteSpace=wrap;html=1;" vertex="1" parent="1">
          <mxGeometry x="550" y="740" width="120" height="60" as="geometry" />
        </mxCell>
        <mxCell id="QBzZupOqylm0bVcXdSXY-58" value="現場件数○○件以上" style="rounded=1;whiteSpace=wrap;html=1;" vertex="1" parent="1">
          <mxGeometry x="210" y="740" width="120" height="60" as="geometry" />
        </mxCell>
        <mxCell id="QBzZupOqylm0bVcXdSXY-60" value="KYシート作成アプリ&lt;div&gt;ユースケース図&lt;/div&gt;" style="rounded=1;whiteSpace=wrap;html=1;" vertex="1" parent="1">
          <mxGeometry x="-70" width="200" height="50" as="geometry" />
        </mxCell>
        <mxCell id="QBzZupOqylm0bVcXdSXY-61" value="最も最近使用した&lt;div&gt;KYシートの表示&lt;/div&gt;" style="rounded=1;whiteSpace=wrap;html=1;" vertex="1" parent="1">
          <mxGeometry x="210" y="820" width="120" height="60" as="geometry" />
        </mxCell>
        <mxCell id="E2zwuJx516XYgaI6lLfB-2" value="ワンクリック&lt;div&gt;捺印&lt;/div&gt;" style="rounded=1;whiteSpace=wrap;html=1;" vertex="1" parent="1">
          <mxGeometry x="380" y="820" width="120" height="60" as="geometry" />
        </mxCell>
        <mxCell id="E2zwuJx516XYgaI6lLfB-3" value="ワークフロー&lt;div&gt;（承認）、&lt;/div&gt;&lt;div&gt;通知機能&lt;/div&gt;" style="rounded=1;whiteSpace=wrap;html=1;" vertex="1" parent="1">
          <mxGeometry x="550" y="820" width="120" height="60" as="geometry" />
        </mxCell>
        <mxCell id="E2zwuJx516XYgaI6lLfB-4" value="各クライアント&lt;div&gt;にて保存&lt;/div&gt;" style="rounded=1;whiteSpace=wrap;html=1;" vertex="1" parent="1">
          <mxGeometry x="210" y="610" width="120" height="60" as="geometry" />
        </mxCell>
        <mxCell id="wztXztocoYSGtYAmJsmd-1" value="バッチ処理" style="rounded=1;whiteSpace=wrap;html=1;" vertex="1" parent="1">
          <mxGeometry x="380" y="740" width="120" height="60" as="geometry" />
        </mxCell>
      </root>
    </mxGraphModel>
  </diagram>
</mxfile>
